<svg id="Layer_1" data-name="Layer 1" xmlns="http://www.w3.org/2000/svg" width="35" height="35" viewBox="0 0 35 35"><defs><style>.cls-1{opacity:0;}.cls-2{fill:#fff;}.cls-3{fill:#19c4ea;}.cls-4{fill:#000;}.cls-5{fill:#444;}</style></defs><title>updated_transparency_strip</title><g class="cls-1"><rect class="cls-2" width="35" height="35"/></g><path class="cls-3" d="M33.92,15.89a14.15,14.15,0,0,0-.23-1.57,15.12,15.12,0,0,0-.37-1.51c-.15-.5-.32-1-.51-1.46a14.69,14.69,0,0,0-.64-1.4c-.23-.45-.49-.89-.76-1.32a14.73,14.73,0,0,0-.88-1.24c-.31-.4-.63-.78-1-1.15s-.71-.72-1.08-1.06S27.48,4.35,27,4c-.33-.23-.66-.43-1-.63a4.34,4.34,0,0,0-.46-.28L25,2.79c-.28-.14-.56-.28-.84-.4a16.23,16.23,0,0,0-1.64-.62,15,15,0,0,0-1.72-.44A15.27,15.27,0,0,0,19,1.07,14.86,14.86,0,0,0,17.5,1c-.53,0-1.07,0-1.6.08s-1,.12-1.56.22-1,.23-1.5.37-1,.33-1.53.53c-.31.13-.62.26-.92.41l-.2.1h0l-.76.41c-.24.13-.47.27-.7.42l-.09.05c-.22.15-.45.3-.66.46l-.55.39-.32.26L7,4.81l-.08.07A16.5,16.5,0,1,0,34,17.5C34,17,34,16.43,33.92,15.89Z"/><path class="cls-2" d="M7.43,17.51a10.07,10.07,0,0,0,20.14,0Z"/><path class="cls-4" d="M13,17.51v9a11.86,11.86,0,0,0,1.21.51V17.51Z"/><path class="cls-4" d="M20.5,17.51v9.62a9.78,9.78,0,0,0,1.21-.47V17.51Z"/><path class="cls-5" d="M16.35,12.44a3.66,3.66,0,0,0-3.58-3.58A3.61,3.61,0,0,0,9.2,12.44c0,.78,1.16.78,1.21,0a2.37,2.37,0,0,1,4.73,0c0,.78,1.25.78,1.21,0Z"/><path class="cls-5" d="M25.08,12.44A3.67,3.67,0,0,0,21.5,8.86a3.62,3.62,0,0,0-3.58,3.58c0,.78,1.17.78,1.21,0a2.37,2.37,0,0,1,4.73,0c.05.78,1.26.78,1.22,0Z"/></svg>